<svg width="413" height="139" viewBox="0 0 413 139" fill="none" xmlns="http://www.w3.org/2000/svg">
<rect x="10" y="10" width="393" height="119" rx="6" stroke="#121212" stroke-width="4"/>
<path d="M4 2H16C17.1046 2 18 2.89543 18 4V16C18 17.1046 17.1046 18 16 18H4C2.89543 18 2 17.1046 2 16V4C2 2.89543 2.89543 2 4 2Z" fill="white" stroke="#121212" stroke-width="4"/>
<path d="M397 2H409C410.105 2 411 2.89543 411 4V16C411 17.1046 410.105 18 409 18H397C395.895 18 395 17.1046 395 16V4C395 2.89543 395.895 2 397 2Z" fill="white" stroke="#121212" stroke-width="4"/>
<path d="M397 121H409C410.105 121 411 121.895 411 123V135C411 136.105 410.105 137 409 137H397C395.895 137 395 136.105 395 135V123C395 121.895 395.895 121 397 121Z" fill="white" stroke="#121212" stroke-width="4"/>
<path d="M4 121H16C17.1046 121 18 121.895 18 123V135C18 136.105 17.1046 137 16 137H4C2.89543 137 2 136.105 2 135V123C2 121.895 2.89543 121 4 121Z" fill="white" stroke="#121212" stroke-width="4"/>
</svg>
